<svg width="1024" height="1024" viewBox="0 0 1024 1024" xmlns="http://www.w3.org/2000/svg">
  <defs>
    <linearGradient id="bg" x1="0" y1="0" x2="0" y2="1">
      <stop offset="0%" stop-color="#26282E"/>
      <stop offset="100%" stop-color="#141519"/>
    </linearGradient>
    <linearGradient id="scan" x1="0" y1="0" x2="1" y2="0">
      <stop offset="0%" stop-color="#5CE1E6" stop-opacity="0"/>
      <stop offset="50%" stop-color="#5CE1E6" stop-opacity="1"/>
      <stop offset="100%" stop-color="#5CE1E6" stop-opacity="0"/>
    </linearGradient>
  </defs>
  <rect width="1024" height="1024" rx="228" ry="228" fill="url(#bg)"/>

  <g>
    <rect x="212" y="270" width="600" height="385" rx="28" fill="none" stroke="#5CE1E6" stroke-width="26"/>
    <rect x="247" y="330" width="110" height="110" rx="20" fill="none" stroke="#565A61" stroke-width="16"/>
    <rect x="387" y="330" width="110" height="110" rx="20" fill="#E24B4A"/>
    <rect x="527" y="330" width="110" height="110" rx="20" fill="none" stroke="#565A61" stroke-width="16"/>
    <rect x="667" y="330" width="110" height="110" rx="20" fill="none" stroke="#565A61" stroke-width="16"/>
    <path d="M170 655 L854 655 L906 731 C912 743 904 753 892 753 L132 753 C120 753 112 743 118 731 Z" fill="none" stroke="#5CE1E6" stroke-width="26" stroke-linejoin="round"/>
    <line x1="437" y1="704" x2="587" y2="704" stroke="#5CE1E6" stroke-width="16" stroke-linecap="round"/>
  </g>

  <rect x="212" y="540" width="600" height="40" fill="url(#scan)"/>

  <rect x="760" y="705" width="190" height="160" rx="28" fill="#1B1C21"/>
  <g transform="rotate(-25 855 785)">
    <rect x="795" y="750" width="120" height="70" rx="16" fill="#1B1C21" stroke="#5CE1E6" stroke-width="16"/>
    <line x1="827" y1="750" x2="827" y2="820" stroke="#5CE1E6" stroke-width="14"/>
  </g>
</svg>
